<svg xmlns="http://www.w3.org/2000/svg" viewBox="0 0 22.48 24.15"><defs><style>.cls-1{opacity:0.65;}.cls-2{fill:none;stroke:#4d4e54;stroke-linecap:round;stroke-linejoin:round;}.cls-3{fill:#4d4e54;}</style></defs><title>Dashboard 2 (2)1</title><g id="Layer_2" data-name="Layer 2"><g id="Data_field_Dashboard_" data-name="Data field (Dashboard)"><g id="Dashboard_2" data-name="Dashboard 2"><g class="cls-1"><circle class="cls-2" cx="15.96" cy="6.52" r="6.02"/><path class="cls-2" d="M19.06,6.52H16V1.75"/><path class="cls-3" d="M15.22,20.6c-1-.58-3.91-2.28-5-2.93a.59.59,0,0,0-.75.14l-.65.79a.58.58,0,0,1-.8.1,11.18,11.18,0,0,1-4.44-7.48.58.58,0,0,1,.48-.65l1.57-.3A.28.28,0,0,0,5.86,10C5.89,9,6,5.4,6,4.26a.58.58,0,0,0-.32-.54l-.37-.17L5,3.44A3.7,3.7,0,0,0,.64,5.54a.06.06,0,0,0,0,0l-.15.51c0,.17-.09.35-.12.53A13.87,13.87,0,0,0,0,10.22,14.67,14.67,0,0,0,10.43,23.85L11,24a4.7,4.7,0,0,0,.51.12h0a3.69,3.69,0,0,0,4-2.74,1.36,1.36,0,0,1,0-.17A.61.61,0,0,0,15.22,20.6Z"/></g></g></g></g></svg>