<svg xmlns="http://www.w3.org/2000/svg" viewBox="0 0 15.73 13.12"><defs><style>.cls-1{fill:#cd5651;}.cls-2{fill:none;stroke:#cd5651;stroke-linecap:round;stroke-linejoin:round;}</style></defs><title>Asset 61</title><g id="Layer_2" data-name="Layer 2"><g id="Data_field_Call_history_" data-name="Data field (Call history)"><path class="cls-1" d="M1.29,12.84l3.47-1.95a.4.4,0,0,0,.18-.49l-.25-.65a.4.4,0,0,1,.22-.51,7.66,7.66,0,0,1,6,0,.4.4,0,0,1,.22.51l-.37,1a.2.2,0,0,0,.08.24l3.34,2.08a.42.42,0,0,0,.43,0,1.84,1.84,0,0,0,.22-.17l.2-.17a2.54,2.54,0,0,0,.25-3.29l0,0L15,9.15l-.27-.26A10.08,10.08,0,0,0,1,8.88l-.27.26a3.07,3.07,0,0,0-.25.26l0,0a2.53,2.53,0,0,0,.25,3.29l.09.08A.41.41,0,0,0,1.29,12.84Z"/><polyline class="cls-2" points="12.08 0.5 7.84 4.74 3.72 0.63 3.72 2.58"/><line class="cls-2" x1="5.76" y1="0.58" x2="3.76" y2="0.58"/></g></g></svg>