<svg xmlns="http://www.w3.org/2000/svg" viewBox="0 0 14.35 15.76"><defs><style>.cls-1,.cls-2{fill:none;stroke:#0c9825;stroke-linecap:round;}.cls-1{stroke-linejoin:round;}.cls-2{stroke-miterlimit:10;}.cls-3{fill:#0c9825;}</style></defs><title>Asset 31</title><g id="Layer_2" data-name="Layer 2"><g id="Data_field_Call_history_" data-name="Data field (Call history)"><polyline class="cls-1" points="13.85 0.53 8.4 5.84 8.53 2.8"/><line class="cls-2" x1="11.44" y1="5.84" x2="8.4" y2="5.84"/><path class="cls-3" d="M11.51,13.08,7.72,10.86a.45.45,0,0,0-.57.1l-.48.6a.45.45,0,0,1-.61.08A8.47,8.47,0,0,1,2.7,6a.45.45,0,0,1,.36-.5l1.19-.22a.21.21,0,0,0,.18-.21c0-.73.1-3.47.13-4.34A.45.45,0,0,0,4.31.3,2.36,2.36,0,0,0,4,.18L3.76.09A2.82,2.82,0,0,0,.48,1.68v0c0,.13-.07.25-.1.38s-.07.27-.1.4a11.06,11.06,0,0,0,7.62,13l.4.12.38.09h0a2.79,2.79,0,0,0,3-2.08,1.3,1.3,0,0,0,0-.13A.43.43,0,0,0,11.51,13.08Z"/></g></g></svg>