<svg xmlns="http://www.w3.org/2000/svg" viewBox="0 0 22.44 24.02"><defs><style>.cls-1,.cls-2{fill:none;stroke:#0c9825;stroke-linecap:round;}.cls-1{stroke-linejoin:round;}.cls-2{stroke-miterlimit:10;}.cls-3{fill:#0c9825;}</style></defs><title>Dashboard 21</title><g id="Layer_2" data-name="Layer 2"><g id="Data_field_Dashboard_" data-name="Data field (Dashboard)"><g id="Dashboard_2" data-name="Dashboard 2"><polyline class="cls-1" points="21.94 1 14.16 8.6 14.34 4.26"/><line class="cls-2" x1="18.5" y1="8.6" x2="14.16" y2="8.6"/><path class="cls-3" d="M17.54,19.93l-5.77-3.38a.69.69,0,0,0-.87.15l-.74.92a.67.67,0,0,1-.92.12A12.86,12.86,0,0,1,4.12,9.11a.66.66,0,0,1,.54-.75L6.48,8a.35.35,0,0,0,.28-.33c0-1.1.15-5.29.18-6.61A.66.66,0,0,0,6.57.46L6.14.27,5.73.14a4.27,4.27,0,0,0-5,2.42l0,0C.66,2.8.61,3,.56,3.19S.45,3.6.41,3.8A16.91,16.91,0,0,0,12,23.67l.61.18.58.14h0a4.27,4.27,0,0,0,4.56-3.16c0-.06,0-.13.05-.2A.68.68,0,0,0,17.54,19.93Z"/></g></g></g></svg>