<svg xmlns="http://www.w3.org/2000/svg" viewBox="0 0 61.29 42.54"><defs><style>.cls-1{fill:#4d4e54;}.cls-2{fill:#0c9825;}</style></defs><title>Dashboard 31</title><g id="Layer_2" data-name="Layer 2"><g id="Data_field_Dashboard_" data-name="Data field (Dashboard)"><g id="Dashboard_3" data-name="Dashboard 3"><circle class="cls-1" cx="20.69" cy="10.76" r="10.76"/><path class="cls-1" d="M41.8,37.19v.48a70.52,70.52,0,0,1-20.28,2.89A70.42,70.42,0,0,1,0,37.29v-.1A13.64,13.64,0,0,1,12.62,23.63a12.82,12.82,0,0,0,16.17,0A13.64,13.64,0,0,1,41.8,37.19Z"/><path class="cls-1" d="M61.29,13a.87.87,0,0,1-.87.85l-21.2-.24,5.08,5.08a.88.88,0,0,1,0,1.22.84.84,0,0,1-.6.26.87.87,0,0,1-.63-.26l-6.58-6.58s0,0,0,0a.61.61,0,0,1-.15-.26.58.58,0,0,1,0-.16.39.39,0,0,1,0-.15.75.75,0,0,1,.07-.33v0a.49.49,0,0,1,.14-.21.17.17,0,0,1,.07-.08.41.41,0,0,1,.1-.09l6.76-6.24a.87.87,0,0,1,1.21,0A.86.86,0,0,1,44.54,7l-5.25,4.84,21.15.24A.88.88,0,0,1,61.29,13Z"/><path class="cls-1" d="M36.53,12.08a.17.17,0,0,0-.07.08.09.09,0,0,1,0-.07Z"/><circle class="cls-2" cx="36.27" cy="38.54" r="4"/></g></g></g></svg>